<svg id="Layer_1" enable-background="new 0 0 480.164 480.164" height="512" viewBox="0 0 480.164 480.164" width="512" xmlns="http://www.w3.org/2000/svg"><path d="m472 269.521v58.35c0 18.19-14.19 33.06-32.1 34.15.046.637.03-1.869.03 30.02 0 14.17-11.49 25.66-25.66 25.66h-41.7c-14.17 0-25.66-11.49-25.66-25.66v-29.96h-213.82v29.96c0 14.17-11.49 25.66-25.66 25.66h-41.7c-14.17 0-25.66-11.49-25.66-25.66 0-31.888-.017-29.383.03-30.02-17.91-1.09-32.1-15.96-32.1-34.15v-58.35c0-17.49 8.91-33.78 23.64-43.21l32.85-21.05 36.57-99.28c6.04-16.4 19.99-28.59 37.05-32.37 65.961-14.616 135.568-15.115 203.78 0 16.558 3.654 30.84 15.512 37.05 32.37 5.345 14.503-.967-2.631 36.57 99.28l32.85 21.05c14.967 9.598 23.64 25.986 23.64 43.21z" fill="#fe4f60"/><path d="m439.93 392.041c0 14.17-11.49 25.66-25.66 25.66h-41.7c-14.17 0-25.66-11.49-25.66-25.66 0-11.416 0-19.3 0-29.96 98.096 0 91.458.028 92.99-.06.047.637.03-1.87.03 30.02z" fill="#42434d"/><path d="m133.09 362.081v29.96c0 14.17-11.49 25.66-25.66 25.66h-41.7c-14.17 0-25.66-11.49-25.66-25.66 0-31.888-.017-29.383.03-30.02 1.529.087-5.127.06 92.99.06z" fill="#42434d"/><g fill="#d6f4fc"><path d="m415.51 205.261h-351.02l36.57-99.28c6.04-16.4 19.99-28.59 37.05-32.37 65.961-14.616 135.568-15.115 203.78 0 16.558 3.654 30.84 15.512 37.05 32.37 5.345 14.504-.967-2.631 36.57 99.28z"/><path d="m381.54 265.591c13.3 0 24 11.03 23.51 24.41-.47 12.73-11.33 22.64-24.07 22.64h-28.2c-19.52 0-26.83-25.57-10.26-35.89 12.07-7.52 25.66-11.16 39.02-11.16z"/><path d="m137.48 276.751c16.57 10.32 9.26 35.89-10.26 35.89h-28.2c-12.74 0-23.6-9.91-24.07-22.64-.49-13.38 10.21-24.41 23.51-24.41 13.36 0 26.95 3.64 39.02 11.16z"/></g><path d="m349.686 107.642c-56.929-8.517-115.143-6.535-171.576 5.969-17.06 3.78-31.01 15.97-37.05 32.37l-21.84 59.28h-54.73l36.57-99.28c6.04-16.4 19.99-28.59 37.05-32.37 65.961-14.616 135.568-15.115 203.78 0 6.48 1.43 12.5 4.08 17.82 7.71 13.254 9.045 4.901 28.553-10.024 26.321z" fill="#e8f8fc"/><path d="m412.935 230.261h-269.429c-25.475 0-50.416 7.305-71.866 21.05-14.73 9.43-23.64 25.72-23.64 43.21 0 14.205-.021 25.132-.036 33.605-.043 25.74-38.765 27.03-39.929 1.316-.051-1.134-.035 3.289-.035-59.921 0-17.49 8.91-33.78 23.64-43.21l32.85-21.05h347.452c3.659 0 5.893 1.49 7.569 2.563 10.248 6.563 5.593 22.437-6.576 22.437z" fill="#ff6d7a"/><path d="m439.93 384.691s-93.013.06-93.02.06v-22.67c97.88 0 91.442.028 92.99-.06.046.637.03-1.668.03 22.67z" fill="#2c2c33"/><path d="m133.09 362.081v22.67c-.001 0-93.019-.06-93.02-.06 0-24.316-.017-22.033.03-22.67 1.529.087-5.116.06 92.99.06z" fill="#2c2c33"/><path d="m112.811 283.181c-8.134 3.541-15.334 9.286-20.829 17.106-3.699 5.264-11.826 4.771-14.679-.995-7.555-15.268 3.655-33.701 21.156-33.701 4.361 0 8.592.418 12.596 1.125 8.445 1.49 9.617 13.043 1.756 16.465z" fill="#e8f8fc"/><path d="m383.21 280.782c-14.033 2.8-25.574 10.913-31.078 24.389-1.96 4.797-8.163 6.257-12.069 2.852-9.001-7.849-9.727-23.684 2.457-31.271 12.444-7.753 26.895-11.42 39.524-11.155 9.206.192 10.196 13.383 1.166 15.185z" fill="#e8f8fc"/><path d="m480 269.521v58.351c0 23.276-18.937 42.212-42.212 42.212h-82.876v21.957c0 9.737 7.922 17.659 17.659 17.659h41.696c9.736 0 17.658-7.922 17.658-17.659v-4.957c0-4.418 3.582-8 8-8s8 3.582 8 8v4.957c0 18.56-15.099 33.659-33.658 33.659h-41.696c-18.56 0-33.659-15.099-33.659-33.659v-21.957h-290.838v21.957c0 9.737 7.922 17.659 17.659 17.659h41.696c9.737 0 17.659-7.922 17.659-17.659v-4.957c0-4.418 3.582-8 8-8s8 3.582 8 8v4.957c0 18.56-15.099 33.659-33.659 33.659h-41.696c-18.56 0-33.659-15.099-33.659-33.659v-23.195c-18.394-4.555-32.074-21.194-32.074-40.975v-58.351c0-20.316 10.213-38.988 27.32-49.948l30.594-19.599 35.637-96.758c7.014-19.044 23.027-33.031 42.834-37.417 55.956-12.389 116.084-15.149 177.213-5.65 4.366.678 7.355 4.768 6.677 9.134-.68 4.365-4.769 7.355-9.134 6.677-54.746-8.507-112.913-7.465-171.297 5.461-14.463 3.202-26.157 13.417-31.279 27.325l-32.601 88.515h339.544c4.418 0 8 3.582 8 8s-3.582 8-8 8h-348.673l-30.884 19.785c-12.493 8.004-19.951 21.64-19.951 36.476v58.351c0 14.453 11.759 26.212 26.212 26.212h395.576c14.453 0 26.212-11.759 26.212-26.212v-58.351c0-14.836-7.458-28.472-19.951-36.475-3.721-2.383-4.804-7.331-2.421-11.052 2.385-3.72 7.334-4.804 11.052-2.421 17.107 10.959 27.32 29.631 27.32 49.948zm-338.289.44c23.402 14.571 13.096 50.676-14.487 50.676h-28.203c-28.715 0-42.317-33.626-23.258-53.397 5.996-6.219 14.056-9.645 22.694-9.645 15.305.001 30.262 4.277 43.254 12.366zm-8.457 13.583c-10.452-6.508-22.485-9.948-34.798-9.948-4.253 0-8.222 1.687-11.175 4.75-9.63 9.988-2.231 26.292 11.739 26.292h28.204c6.344 0 9.826-4.273 10.969-8.273 1.144-4 .447-9.468-4.939-12.821zm248.29-25.948c8.639 0 16.698 3.425 22.693 9.645 19.039 19.747 5.479 53.397-23.258 53.397h-28.204c-27.568 0-37.901-36.097-14.487-50.676 12.993-8.09 27.951-12.366 43.256-12.366zm0 16c-12.313 0-24.346 3.44-34.799 9.948-9.749 6.071-5.46 21.093 6.03 21.093h28.204c8.562 0 15.772-6.698 16.075-14.93.325-8.894-6.772-16.111-15.51-16.111zm40.407-134.091c9.447 9.448 2.664 25.606-10.607 25.606-13.261 0-20.061-16.151-10.606-25.606 5.861-5.862 15.351-5.863 21.213 0zm26.163-14.849c3.124-3.124 3.124-8.189 0-11.314-20.322-20.323-53.214-20.325-73.54 0-3.124 3.124-3.124 8.189 0 11.314 3.125 3.124 8.189 3.125 11.314 0 14.068-14.07 36.842-14.071 50.911 0 3.128 3.126 8.192 3.122 11.315 0zm-91.924-29.699c30.482-30.484 79.823-30.486 110.308 0 1.563 1.563 3.609 2.344 5.657 2.343 7.08-.001 10.701-8.613 5.657-13.657-36.738-36.737-96.195-36.74-132.937 0-3.124 3.124-3.124 8.189 0 11.314 3.126 3.124 8.19 3.125 11.315 0z"/></svg>