<svg id="Layer_35" enable-background="new 0 0 64 64" height="512" viewBox="0 0 64 64" width="512" xmlns="http://www.w3.org/2000/svg"><path d="m52 11v6h-14c0 1.66-.67 3.16-1.76 4.24-.08.08-.16.15-.24.23-1.06.95-2.46 1.53-4 1.53s-2.94-.58-4-1.53c-.08-.08-.16-.15-.24-.23-1.09-1.08-1.76-2.58-1.76-4.24h-14v-6z" fill="#ccd1d9"/><path d="m32 23c1.54 0 2.94-.58 4-1.53v21.06c-1.06-.95-2.46-1.53-4-1.53s-2.94.58-4 1.53v-21.06c1.06.95 2.46 1.53 4 1.53z" fill="#fcd770"/><path d="m52 47v6h-40v-6h14c0-1.66.67-3.16 1.76-4.24.08-.08.16-.15.24-.23 1.06-.95 2.46-1.53 4-1.53s2.94.58 4 1.53c.08.08.16.15.24.23 1.09 1.08 1.76 2.58 1.76 4.24z" fill="#ccd1d9"/><g fill="#838f9b"><circle cx="32" cy="17" r="2"/><circle cx="32" cy="47" r="2"/><path d="m12 53v5c0 2.21-1.79 4-4 4h-2c-2.21 0-4-1.79-4-4v-16c0-2.21 1.79-4 4-4h2c2.21 0 4 1.79 4 4v5z"/><path d="m2 22v-16c0-2.21 1.79-4 4-4h2c2.21 0 4 1.79 4 4v5 6 5c0 2.21-1.79 4-4 4h-2c-2.21 0-4-1.79-4-4z"/><path d="m62 6v16c0 2.21-1.79 4-4 4h-2c-2.21 0-4-1.79-4-4v-5-6-5c0-2.21 1.79-4 4-4h2c2.21 0 4 1.79 4 4z"/><path d="m62 42v16c0 2.21-1.79 4-4 4h-2c-2.21 0-4-1.79-4-4v-5-6-5c0-2.21 1.79-4 4-4h2c2.21 0 4 1.79 4 4z"/></g><path d="m59.707 41.707-1.414-1.414-1.293 1.293-1.293-1.293-1.414 1.414 2.707 2.707z"/><path d="m59.707 46.707-1.414-1.414-1.293 1.293-1.293-1.293-1.414 1.414 2.707 2.707z"/><path d="m59.707 51.707-1.414-1.414-1.293 1.293-1.293-1.293-1.414 1.414 2.707 2.707z"/><path d="m59.707 56.707-1.414-1.414-1.293 1.293-1.293-1.293-1.414 1.414 2.707 2.707z"/><path d="m7 41.586-1.293-1.293-1.414 1.414 2.707 2.707 2.707-2.707-1.414-1.414z"/><path d="m7 46.586-1.293-1.293-1.414 1.414 2.707 2.707 2.707-2.707-1.414-1.414z"/><path d="m7 51.586-1.293-1.293-1.414 1.414 2.707 2.707 2.707-2.707-1.414-1.414z"/><path d="m7 56.586-1.293-1.293-1.414 1.414 2.707 2.707 2.707-2.707-1.414-1.414z"/><path d="m32 44c-1.654 0-3 1.346-3 3s1.346 3 3 3 3-1.346 3-3-1.346-3-3-3zm0 4c-.551 0-1-.449-1-1s.449-1 1-1 1 .449 1 1-.449 1-1 1z"/><path d="m56 27h2c2.757 0 5-2.243 5-5v-16c0-2.757-2.243-5-5-5h-2c-2.757 0-5 2.243-5 5v4h-38v-4c0-2.757-2.243-5-5-5h-2c-2.757 0-5 2.243-5 5v16c0 2.757 2.243 5 5 5h2c2.757 0 5-2.243 5-5v-4h12.071c.216 1.504.914 2.853 1.929 3.891v20.219c-1.015 1.038-1.713 2.387-1.929 3.891h-12.071v-4c0-2.757-2.243-5-5-5h-2c-2.757 0-5 2.243-5 5v16c0 2.757 2.243 5 5 5h2c2.757 0 5-2.243 5-5v-4h38v4c0 2.757 2.243 5 5 5h2c2.757 0 5-2.243 5-5v-16.001c0-2.757-2.243-5-5-5h-2c-2.757 0-5 2.243-5 5v4h-12.071c-.216-1.504-.914-2.853-1.929-3.891v-20.218c1.015-1.038 1.713-2.387 1.929-3.891h12.071v4c0 2.757 2.243 5 5 5zm-3-21c0-1.654 1.346-3 3-3h2c1.654 0 3 1.346 3 3v16c0 1.654-1.346 3-3 3h-2c-1.654 0-3-1.346-3-3zm-42 16c0 1.654-1.346 3-3 3h-2c-1.654 0-3-1.346-3-3v-16c0-1.654 1.346-3 3-3h2c1.654 0 3 1.346 3 3zm0 36c0 1.654-1.346 3-3 3h-2c-1.654 0-3-1.346-3-3v-16c0-1.654 1.346-3 3-3h2c1.654 0 3 1.346 3 3zm42-16c0-1.654 1.346-3 3-3h2c1.654 0 3 1.346 3 3v16c0 1.654-1.346 3-3 3h-2c-1.654 0-3-1.346-3-3zm-2 6v4h-38v-4h14v-1c0-2.757 2.243-5 5-5s5 2.243 5 5v1zm-16-7.321c-.91-.433-1.926-.679-3-.679s-2.09.246-3 .679v-17.358c.91.433 1.926.679 3 .679s2.09-.246 3-.679zm2-24.679v1c0 2.757-2.243 5-5 5s-5-2.243-5-5v-1h-14v-4h38v4z"/><path d="m59.707 5.707-1.414-1.414-1.293 1.293-1.293-1.293-1.414 1.414 2.707 2.707z"/><path d="m59.707 10.707-1.414-1.414-1.293 1.293-1.293-1.293-1.414 1.414 2.707 2.707z"/><path d="m59.707 15.707-1.414-1.414-1.293 1.293-1.293-1.293-1.414 1.414 2.707 2.707z"/><path d="m59.707 20.707-1.414-1.414-1.293 1.293-1.293-1.293-1.414 1.414 2.707 2.707z"/><path d="m7 5.586-1.293-1.293-1.414 1.414 2.707 2.707 2.707-2.707-1.414-1.414z"/><path d="m7 10.586-1.293-1.293-1.414 1.414 2.707 2.707 2.707-2.707-1.414-1.414z"/><path d="m7 15.586-1.293-1.293-1.414 1.414 2.707 2.707 2.707-2.707-1.414-1.414z"/><path d="m7 20.586-1.293-1.293-1.414 1.414 2.707 2.707 2.707-2.707-1.414-1.414z"/><path d="m32 14c-1.654 0-3 1.346-3 3s1.346 3 3 3 3-1.346 3-3-1.346-3-3-3zm0 4c-.551 0-1-.449-1-1s.449-1 1-1 1 .449 1 1-.449 1-1 1z"/><path d="m31 26h2v2h-2z"/><path d="m31 30h2v2h-2z"/><path d="m31 34h2v2h-2z"/></svg>