<svg height="512" viewBox="0 0 128 128" width="512" xmlns="http://www.w3.org/2000/svg"><g><g><path d="m64 25.541c-22.4 0-40.562-5.327-40.562-11.9v100.709c0 6.571 18.16 11.9 40.562 11.9s40.562-5.326 40.562-11.9v-100.706c0 6.57-18.162 11.897-40.562 11.897z" fill="#50c5ff"/><ellipse cx="64" cy="13.644" fill="#d5e8fe" rx="40.562" ry="11.897"/><g fill="#488aff"><path d="m33.436 108.279a1.751 1.751 0 0 1 -.557-3.41 61.594 61.594 0 0 1 5.948-1.643 1.75 1.75 0 0 1 .775 3.413 57.874 57.874 0 0 0 -5.608 1.549 1.781 1.781 0 0 1 -.558.091z"/><path d="m49.048 105.038a1.75 1.75 0 0 1 -.2-3.489c3.235-.376 6.63-.631 10.088-.755a1.75 1.75 0 1 1 .126 3.5c-3.366.121-6.666.368-9.81.734a1.757 1.757 0 0 1 -.204.01zm29.882 0a1.745 1.745 0 0 1 -.2-.012c-3.147-.365-6.448-.611-9.81-.732a1.75 1.75 0 1 1 .125-3.5c3.456.124 6.85.377 10.088.753a1.75 1.75 0 0 1 -.2 3.489z"/><path d="m94.564 108.279a1.781 1.781 0 0 1 -.558-.091 57.874 57.874 0 0 0 -5.608-1.549 1.75 1.75 0 1 1 .775-3.413 61.594 61.594 0 0 1 5.948 1.643 1.751 1.751 0 0 1 -.557 3.41z"/></g></g><g><path d="m38.827 103.226a61.594 61.594 0 0 0 -5.948 1.643 1.751 1.751 0 0 0 .557 3.41 1.781 1.781 0 0 0 .558-.091 57.874 57.874 0 0 1 5.608-1.549 1.75 1.75 0 0 0 -.775-3.413z"/><path d="m69.041 100.793a1.75 1.75 0 1 0 -.125 3.5c3.362.121 6.663.367 9.81.732a1.75 1.75 0 0 0 .4-3.477c-3.235-.378-6.626-.631-10.085-.755z"/><path d="m48.848 101.549a1.75 1.75 0 1 0 .4 3.477c3.144-.366 6.444-.613 9.81-.734a1.75 1.75 0 1 0 -.126-3.5c-3.454.126-6.849.381-10.084.757z"/><path d="m89.173 103.226a1.75 1.75 0 1 0 -.775 3.413 57.874 57.874 0 0 1 5.608 1.549 1.781 1.781 0 0 0 .558.091 1.751 1.751 0 0 0 .557-3.41 61.594 61.594 0 0 0 -5.948-1.643z"/><path d="m106.312 13.642c-.003-8.863-21.801-13.642-42.312-13.642s-42.309 4.779-42.312 13.642v100.709c0 8.863 21.8 13.649 42.312 13.649s42.312-4.783 42.312-13.646v-26.979a1.75 1.75 0 0 0 -3.5 0v26.976c0 4.236-14.765 10.146-38.812 10.146s-38.812-5.91-38.812-10.146v-94.943c3.282 2.444 8.346 4.107 12.891 5.187a1.75 1.75 0 0 0 .81-3.4c-10.113-2.4-13.7-5.567-13.7-7.546-.001-4.242 14.764-10.149 38.811-10.149s38.812 5.91 38.812 10.147-14.765 10.144-38.812 10.144c-3.393 0-6.767-.125-10.028-.372a1.75 1.75 0 0 0 -.264 3.491c3.349.253 6.812.381 10.292.381 15.557 0 31.846-2.754 38.812-7.95v35.159a1.75 1.75 0 1 0 3.5 0z"/><path d="m104.562 64.625a1.751 1.751 0 0 0 -1.75 1.75v9.125a1.75 1.75 0 0 0 3.5 0v-9.125a1.75 1.75 0 0 0 -1.75-1.75z"/></g></g></svg>