<?xml version="1.0" encoding="iso-8859-1"?>
<!-- Generator: Adobe Illustrator 19.0.0, SVG Export Plug-In . SVG Version: 6.00 Build 0)  -->
<svg version="1.1" id="Capa_1" xmlns="http://www.w3.org/2000/svg" xmlns:xlink="http://www.w3.org/1999/xlink" x="0px" y="0px"
	 viewBox="0 0 490.69 490.69" style="enable-background:new 0 0 490.69 490.69;" xml:space="preserve">
<path style="fill:#CFD8DC;" d="M437.357,64.011H138.69c-29.455,0-53.333,23.878-53.333,53.333v213.333
	c0,5.891,4.776,10.667,10.667,10.667h341.333c29.455,0,53.333-23.878,53.333-53.333V117.345
	C490.69,87.889,466.812,64.011,437.357,64.011z"/>
<path style="fill:#FFC107;" d="M362.69,234.678c0.012-6.037,2.615-11.778,7.147-15.765c4.371-3.949,4.713-10.694,0.764-15.066
	c-0.242-0.267-0.496-0.522-0.764-0.764c-17.455-15.83-44.438-14.512-60.268,2.943c-15.83,17.455-14.512,44.438,2.943,60.268
	c16.263,14.748,41.063,14.748,57.325,0c4.371-3.949,4.713-10.694,0.764-15.066c-0.242-0.267-0.496-0.522-0.764-0.764
	C365.299,246.472,362.696,240.722,362.69,234.678z"/>
<circle style="fill:#455A64;" cx="384.023" cy="240.353" r="42.667"/>
<g>
	<path style="fill:#90A4AE;" d="M181.357,149.345h-21.333c-5.891,0-10.667-4.776-10.667-10.667s4.776-10.667,10.667-10.667h21.333
		c5.891,0,10.667,4.776,10.667,10.667S187.248,149.345,181.357,149.345z"/>
	<path style="fill:#90A4AE;" d="M245.357,149.345h-21.333c-5.891,0-10.667-4.776-10.667-10.667s4.776-10.667,10.667-10.667h21.333
		c5.891,0,10.667,4.776,10.667,10.667S251.248,149.345,245.357,149.345z"/>
	<path style="fill:#90A4AE;" d="M309.357,149.345h-21.333c-5.891,0-10.667-4.776-10.667-10.667s4.776-10.667,10.667-10.667h21.333
		c5.891,0,10.667,4.776,10.667,10.667S315.248,149.345,309.357,149.345z"/>
	<path style="fill:#90A4AE;" d="M373.357,149.345h-21.333c-5.891,0-10.667-4.776-10.667-10.667s4.776-10.667,10.667-10.667h21.333
		c5.891,0,10.667,4.776,10.667,10.667S379.248,149.345,373.357,149.345z"/>
	<path style="fill:#90A4AE;" d="M266.69,213.345h-85.333c-5.891,0-10.667-4.776-10.667-10.667c0-5.891,4.776-10.667,10.667-10.667
		h85.333c5.891,0,10.667,4.776,10.667,10.667C277.357,208.569,272.581,213.345,266.69,213.345z"/>
	<path style="fill:#90A4AE;" d="M266.69,277.345h-21.333c-5.891,0-10.667-4.776-10.667-10.667c0-5.891,4.776-10.667,10.667-10.667
		h21.333c5.891,0,10.667,4.776,10.667,10.667C277.357,272.569,272.581,277.345,266.69,277.345z"/>
</g>
<path style="fill:#FFC107;" d="M190.957,283.382c-1.777-3.688-5.507-6.034-9.6-6.037h-56.32l-18.901-56.704
	c-2.535-5.591-9.122-8.068-14.713-5.533c-2.454,1.113-4.42,3.079-5.533,5.533l-18.88,56.704H10.69
	C4.799,277.332,0.013,282.097,0,287.988c-0.005,2.436,0.823,4.801,2.349,6.701l39.232,49.067l-19.797,69.312
	c-1.626,5.662,1.645,11.571,7.308,13.197c3.013,0.865,6.255,0.361,8.863-1.378l58.069-38.741l58.091,38.72
	c4.901,3.269,11.524,1.945,14.793-2.956c1.74-2.608,2.244-5.85,1.378-8.863l-19.819-69.355l39.232-49.067
	C192.234,291.427,192.723,287.062,190.957,283.382z"/>
<g>
</g>
<g>
</g>
<g>
</g>
<g>
</g>
<g>
</g>
<g>
</g>
<g>
</g>
<g>
</g>
<g>
</g>
<g>
</g>
<g>
</g>
<g>
</g>
<g>
</g>
<g>
</g>
<g>
</g>
</svg>
