<svg height="512" viewBox="0 0 64 64" width="512" xmlns="http://www.w3.org/2000/svg"><g id="New_Car" data-name="New Car"><path d="m57 27.35v7.65a2.006 2.006 0 0 1 -2 2h-46a2.006 2.006 0 0 1 -2-2v-7.65a2 2 0 0 1 1.26-1.85l3.22-1.29a2.419 2.419 0 0 0 .39-.21h40.26a2.419 2.419 0 0 0 .39.21l3.22 1.29a2 2 0 0 1 1.26 1.85z" fill="#5aaae7"/><path d="m60 51v2h-56v-2l2-2h5 4 34 4 5z" fill="#ee8700"/><path d="m61 53v8h-58v-8h1 56z" fill="#ff9811"/><path d="m55 43v4a2.006 2.006 0 0 1 -2 2h-4a2.006 2.006 0 0 1 -2-2v-4z" fill="#57565c"/><path d="m17 43v4a2.006 2.006 0 0 1 -2 2h-4a2.006 2.006 0 0 1 -2-2v-4z" fill="#57565c"/><path d="m59 38v4a1 1 0 0 1 -1 1h-52a1 1 0 0 1 -1-1v-4a1 1 0 0 1 1-1h52a1 1 0 0 1 1 1z" fill="#3d9ae2"/><path d="m30 29v4h-3a2.006 2.006 0 0 1 -2-2 2.015 2.015 0 0 1 2-2z" fill="#ffd422"/><path d="m20 31v2h-4a2.006 2.006 0 0 1 -2-2v-2h4a2.006 2.006 0 0 1 2 2z" fill="#ff9811"/><path d="m30 29h4v4h-4z" fill="#ebbf00"/><path d="m37 29a2.006 2.006 0 0 1 2 2 2.015 2.015 0 0 1 -2 2h-3v-4z" fill="#ffd422"/><path d="m50 29v2a2.006 2.006 0 0 1 -2 2h-4v-2a2.006 2.006 0 0 1 2-2z" fill="#ff9811"/><path d="m57.72 20a1 1 0 0 1 .97 1.24l-.5 2a1 1 0 0 1 -.97.76h-5.09a2.01 2.01 0 0 1 -.47-.45l-2.66-3.55z" fill="#3d9ae2"/><path d="m51.66 23.55-2.66-3.55-4.8-6.4a4 4 0 0 0 -3.2-1.6h-18a4 4 0 0 0 -3.2 1.6l-4.8 6.4-2.66 3.55a2.01 2.01 0 0 1 -.47.45h40.26a2.01 2.01 0 0 1 -.47-.45z" fill="#e6e7e8"/><path d="m15 20-2.66 3.55a2.01 2.01 0 0 1 -.47.45h-5.09a1 1 0 0 1 -.97-.76l-.5-2a1 1 0 0 1 .97-1.24z" fill="#3d9ae2"/><path d="m27 15h6v2h-6z"/><path d="m18 28h-4a1 1 0 0 0 -1 1v2a3 3 0 0 0 3 3h4a1 1 0 0 0 1-1v-2a3 3 0 0 0 -3-3zm1 4h-3a1 1 0 0 1 -1-1v-1h3a1 1 0 0 1 1 1z"/><path d="m50 28h-4a3 3 0 0 0 -3 3v2a1 1 0 0 0 1 1h4a3 3 0 0 0 3-3v-2a1 1 0 0 0 -1-1zm-1 3a1 1 0 0 1 -1 1h-3v-1a1 1 0 0 1 1-1h3z"/><path d="m37 28h-10a3 3 0 0 0 0 6h10a3 3 0 0 0 0-6zm-4 2v2h-2v-2zm-7 1a1 1 0 0 1 1-1h2v2h-2a1 1 0 0 1 -1-1zm11 1h-2v-2h2a1 1 0 0 1 0 2z"/><path d="m61 52v-1a1 1 0 0 0 -.293-.707l-2-2a1 1 0 0 0 -.707-.293h-2.184a2.966 2.966 0 0 0 .184-1v-3h2a2 2 0 0 0 2-2v-4a2 2 0 0 0 -2-2h-.184a2.966 2.966 0 0 0 .184-1v-7.646a2.982 2.982 0 0 0 -1.142-2.354h.362a1.991 1.991 0 0 0 1.94-1.517l.5-2a2 2 0 0 0 -1.94-2.483h-8.22l-4.5-6a5.025 5.025 0 0 0 -4-2h-18a5.025 5.025 0 0 0 -4 2l-4.5 6h-8.22a2 2 0 0 0 -1.94 2.483l.5 2a1.993 1.993 0 0 0 1.94 1.517h.362a2.982 2.982 0 0 0 -1.142 2.354v7.646a2.966 2.966 0 0 0 .184 1h-.184a2 2 0 0 0 -2 2v4a2 2 0 0 0 2 2h2v3a2.966 2.966 0 0 0 .184 1h-2.184a1 1 0 0 0 -.707.293l-2 2a1 1 0 0 0 -.293.707v1a1 1 0 0 0 -1 1v8a1 1 0 0 0 1 1h58a1 1 0 0 0 1-1v-8a1 1 0 0 0 -1-1zm-7-5a1 1 0 0 1 -1 1h-4a1 1 0 0 1 -1-1v-3h6zm-36-3h28v3a2.966 2.966 0 0 0 .184 1h-28.368a2.966 2.966 0 0 0 .184-1zm39.721-23-.5 2h-4.71c-.015-.017-.034-.03-.048-.049l-1.463-1.951zm-37.121-6.8a3.017 3.017 0 0 1 2.4-1.2h18a3.017 3.017 0 0 1 2.4 1.2l6.6 8.8h-21.1a5 5 0 0 0 -9.8 0h-5.1zm6.216 8.8h-5.632a2.982 2.982 0 0 1 5.632 0zm-20.037 0-.5-2h6.721l-1.463 1.95c-.014.019-.034.032-.049.05zm1.221 12v-1h3v-2h-3v-2h3v-2h-3v-.646a1 1 0 0 1 .628-.928l3.223-1.289c.086-.034.158-.095.241-.137h39.816c.083.042.155.1.241.137l3.222 1.288a1 1 0 0 1 .629.929v.646h-3v2h3v2h-3v2h3v1a1 1 0 0 1 -1 1h-46a1 1 0 0 1 -1-1zm-2 3h52v4h-52zm4 9v-3h6v3a1 1 0 0 1 -1 1h-4a1 1 0 0 1 -1-1zm-5 4.414 1.414-1.414h51.172l1.414 1.414v.586h-54zm55 8.586h-56v-6h56z"/><path d="m9 10h2v-2h2v-2h-2v-2h-2v2h-2v2h2z"/><path d="m52 14h2v-2h2v-2h-2v-2h-2v2h-2v2h2z"/></g></svg>